<svg width="40" height="40" viewBox="0 0 40 40" fill="none" xmlns="http://www.w3.org/2000/svg">
<circle cx="20" cy="20" r="20" fill="rgb(108, 117, 125)"/>
<path fill-rule="evenodd" clip-rule="evenodd" d="M5.23055 33.4859C1.98169 29.9298 0 25.1963 0 20C0 8.9543 8.9543 0 20 0C31.0457 0 40 8.9543 40 20C40 25.1963 38.0183 29.9298 34.7695 33.4859C33.6891 27.3877 28.9244 22.5622 22.8577 21.392C25.2991 20.2989 27 17.8481 27 15C27 11.134 23.866 8 20 8C16.134 8 13 11.134 13 15C13 17.8481 14.7009 20.2989 17.1423 21.392C11.0756 22.5622 6.31086 27.3877 5.23055 33.4859Z" fill="#FAFBFE"/>
</svg>
