<?xml version="1.0" encoding="UTF-8"?>
<svg width="308.62" height="236.35" version="1.1" xmlns="http://www.w3.org/2000/svg" xmlns:cc="http://creativecommons.org/ns#" xmlns:dc="http://purl.org/dc/elements/1.1/" xmlns:rdf="http://www.w3.org/1999/02/22-rdf-syntax-ns#">
 <metadata>
  <rdf:RDF>
   <cc:Work rdf:about="">
    <dc:format>image/svg+xml</dc:format>
    <dc:type rdf:resource="http://purl.org/dc/dcmitype/StillImage"/>
    <dc:title/>
   </cc:Work>
  </rdf:RDF>
 </metadata>
 <g transform="translate(-266.63 -179.46)" fill-rule="evenodd">
  <g fill="#00904a">
   <path d="m267.65 387.97v-22.121c0-0.461 0.1579-0.8549 0.4788-1.1886 0.3218-0.3336 0.7098-0.4974 1.1708-0.4974h23.068c0.461 0 0.8549 0.1638 1.1766 0.4974 0.3277 0.3337 0.4916 0.7276 0.4916 1.1886v22.121c0 0.461-0.1698 0.8557-0.5035 1.1767-0.3396 0.3276-0.7402 0.4915-1.2012 0.4915h-3.3059c-0.4609 0-0.8549-0.1639-1.1885-0.4915-0.3337-0.321-0.4975-0.7157-0.4975-1.1767v-18.785h-12.992v18.785c0 0.461-0.1639 0.8557-0.4916 1.1767-0.3217 0.3276-0.7156 0.4915-1.1766 0.4915h-3.3424c-0.4609 0-0.8549-0.1639-1.1885-0.4915-0.3337-0.321-0.4975-0.7157-0.4975-1.1767zm31.468 0v-22.121c0-0.461 0.1579-0.8549 0.4789-1.1886 0.3217-0.3336 0.7097-0.4974 1.1707-0.4974h13.557c7.1516 0 10.73 3.2991 10.736 9.8989 6e-3 6.5997-3.5725 9.8989-10.736 9.8989h-8.51v4.0036c0 0.461-0.1638 0.8617-0.4915 1.1827-0.3217 0.3276-0.7157 0.4915-1.1767 0.4915h-3.3423c-0.461 0-0.855-0.1639-1.1886-0.4915-0.3336-0.321-0.4975-0.7157-0.4975-1.1767zm6.6966-9.0313h6.4844c1.9891 0 3.4935-0.3336 4.5249-1.0009 1.0307-0.6733 1.5468-1.9654 1.5468-3.8763 0-1.911-0.5161-3.2024-1.5468-3.8756-1.0314-0.6673-2.5358-1.0009-4.5249-1.0009h-6.4844zm24.7 8.0609c-2.4263-2.1232-3.6394-5.4894-3.6394-10.099 0-4.6099 1.2131-7.9768 3.6394-10.099 2.4323-2.1232 5.9869-3.1844 10.67-3.1844 4.6889 0 8.2434 1.0612 10.663 3.1844 2.4203 2.1225 3.6335 5.4894 3.6335 10.099 0 4.6098-1.2132 7.976-3.6335 10.099-2.4197 2.1232-5.9742 3.1845-10.663 3.1845-4.6828 0-8.2374-1.0613-10.67-3.1845zm4.8586-16.444c-1.2012 1.4194-1.8015 3.5367-1.8015 6.351 0 2.8144 0.6003 4.9316 1.8015 6.3511 1.2072 1.4127 3.142 2.1224 5.8111 2.1224 2.6751 0 4.6099-0.7097 5.8045-2.1224 1.1952-1.4195 1.7955-3.5367 1.7955-6.3511 0-2.8143-0.6003-4.9316-1.7955-6.351-1.1946-1.4254-3.1294-2.1351-5.8045-2.1351-2.6691 0-4.6039 0.7097-5.8111 2.1351zm23.735 17.415v-22.121c0-0.461 0.1579-0.8549 0.4789-1.1886 0.3217-0.3336 0.7097-0.4974 1.1707-0.4974h23.068c0.461 0 0.855 0.1638 1.1767 0.4974 0.3277 0.3337 0.4915 0.7276 0.4915 1.1886v22.121c0 0.461-0.1698 0.8557-0.5034 1.1767-0.3396 0.3276-0.7403 0.4915-1.2013 0.4915h-3.3058c-0.461 0-0.8549-0.1639-1.1886-0.4915-0.3336-0.321-0.4975-0.7157-0.4975-1.1767v-18.785h-12.992v18.785c0 0.461-0.1638 0.8557-0.4915 1.1767-0.3217 0.3276-0.7157 0.4915-1.1767 0.4915h-3.3423c-0.461 0-0.8549-0.1639-1.1886-0.4915-0.3336-0.321-0.4975-0.7157-0.4975-1.1767zm29.364 0.0305 4.4639-16.917c1.2072-4.6039 5.1379-6.9088 11.792-6.9207h9.5772c0.4371 0 0.8013 0.1638 1.0918 0.4974 0.2911 0.3337 0.4371 0.7157 0.4371 1.1521v22.194c0 0.461-0.1638 0.849-0.4975 1.1588-0.3336 0.315-0.7276 0.4729-1.1885 0.4729h-3.3424c-0.4855 0-0.8855-0.1579-1.1953-0.4729-0.315-0.3098-0.4729-0.7097-0.4729-1.1953v-4.4825h-12.587l-1.1945 4.4885c-0.1214 0.4855-0.3881 0.8795-0.8066 1.1952-0.4126 0.3091-0.8497 0.467-1.3167 0.467h-3.5054c-0.461 0-0.8132-0.1579-1.0501-0.4789-0.1631-0.213-0.248-0.455-0.248-0.7283 6e-3 -0.1333 0.0239-0.2726 0.0425-0.4305zm9.426-9.5355h11.239v-9.28h-5.0462c-1.1283 0-2.1173 0.321-2.9663 0.9704-0.843 0.6486-1.4135 1.5162-1.7047 2.608zm23.031 9.505v-22.121c0-0.461 0.1639-0.8549 0.4975-1.1886 0.3337-0.3336 0.7395-0.4974 1.2251-0.4974h3.3058c0.461 0 0.855 0.1638 1.1767 0.4974 0.3277 0.3337 0.4915 0.7276 0.4915 1.1886v7.9947h12.228v-7.9947c0-0.461 0.1639-0.8549 0.4975-1.1886 0.3337-0.3336 0.7276-0.4974 1.1886-0.4974h3.3059c0.4848 0 0.8914 0.1638 1.2131 0.4974 0.3277 0.3337 0.4915 0.7276 0.4915 1.1886v22.121c0 0.461-0.1698 0.8557-0.5034 1.1767-0.3403 0.3276-0.7403 0.4915-1.2012 0.4915h-3.3059c-0.461 0-0.8549-0.1579-1.1886-0.4729-0.3336-0.3098-0.4975-0.6978-0.4975-1.1648v-9.1348h-12.228v9.1348c0 0.467-0.1638 0.855-0.4915 1.1648-0.3217 0.315-0.7157 0.4729-1.1767 0.4729h-3.3058c-0.461 0-0.8617-0.1639-1.2072-0.4915-0.3456-0.321-0.5154-0.7157-0.5154-1.1767zm29.254 0v-2.5961c0-1.5044 0.3091-2.8084 0.9339-3.9121 0.6189-1.0977 1.4135-1.9653 2.3839-2.5901 0.9704-0.6308 2.0502-1.1707 3.2328-1.6198 1.1834-0.4483 2.366-0.8311 3.5487-1.1402 1.1826-0.3091 2.2624-0.5943 3.2455-0.849 0.9763-0.2606 1.7769-0.6189 2.3958-1.0798 0.6188-0.467 0.9279-1.0315 0.9279-1.6921 0-1.3405-0.3456-2.2505-1.0314-2.7301-0.6852-0.4789-1.85-0.7217-3.4816-0.7217h-1.2616c-2.2863 0-3.7907 0.7284-4.5131 2.1836-0.5332 1.1163-1.3338 1.6741-2.4017 1.6741h-2.1106c-0.2122 0-0.4431-0.0424-0.6859-0.1273-0.242-0.079-0.4974-0.2853-0.7581-0.6189-0.2606-0.3336-0.388-0.7395-0.388-1.2251 0-1.3643 0.5154-2.5842 1.5528-3.6573 1.0374-1.0799 2.3228-1.8924 3.8636-2.4323 1.5408-0.5459 3.148-0.8192 4.8162-0.8192h2.4024c1.5707 0 2.9723 0.1333 4.1973 0.4007 1.2311 0.2666 2.3474 0.7037 3.3543 1.3159 1.0009 0.6069 1.7769 1.4805 2.3228 2.6147 0.5459 1.1402 0.8192 2.5172 0.8192 4.1429 0 1.3763-0.3091 2.5835-0.9279 3.6328-0.6189 1.0493-1.4135 1.8805-2.3839 2.4993-0.9764 0.6189-2.0562 1.1462-3.2515 1.5952-1.1945 0.4491-2.3779 0.8252-3.5546 1.1283-1.1766 0.3031-2.2498 0.5824-3.2328 0.8371-0.9823 0.2547-1.7829 0.5883-2.4018 0.9949-0.6248 0.4126-0.9339 0.8915-0.9339 1.4373h14.764c0.4856 0 0.8914 0.1639 1.2191 0.4975 0.3277 0.3337 0.4915 0.7276 0.4915 1.1886v1.6682c0 0.461-0.1698 0.8557-0.5094 1.1826-0.3336 0.3217-0.7343 0.4856-1.1952 0.4856h-19.726c-0.461 0-0.8609-0.1639-1.2072-0.4915-0.3456-0.321-0.5154-0.7157-0.5154-1.1767zm23.723-4.4766v-2.1165c0-1.0433 0.3701-1.9653 1.1037-2.7718l11.737-13.339c0.6494-0.7276 1.5714-1.0917 2.7719-1.1036h5.5564c0.4855 0 0.8914 0.1638 1.225 0.4974 0.3337 0.3337 0.4975 0.7276 0.4975 1.1886v14.291h1.9534c0.4856 0 0.8915 0.1638 1.2251 0.4975 0.3337 0.3336 0.4975 0.7276 0.4975 1.1886v1.6681c0 0.461-0.1698 0.8557-0.5154 1.1834-0.3395 0.321-0.7462 0.4848-1.2072 0.4848h-1.9534v2.8084c0 0.461-0.1698 0.8557-0.5153 1.1767-0.3456 0.3276-0.7462 0.4915-1.2072 0.4915h-3.3059c-0.461 0-0.8549-0.1579-1.1766-0.4729-0.3277-0.3098-0.4916-0.6978-0.4916-1.1588v-2.8449h-14.472c-0.461 0-0.8677-0.1638-1.2072-0.4915-0.3456-0.321-0.5154-0.7157-0.5154-1.1767zm7.133-3.3542h9.0618v-10.287zm21.254 7.2849v-1.1223c0-0.782 0.2003-1.377 0.5943-1.7955 0.4007-0.4119 0.9704-0.6182 1.7047-0.6182h2.0986c0.7462 0 1.316 0.2063 1.7107 0.6182 0.3939 0.4185 0.5883 1.0135 0.5883 1.7955v1.1223c0 0.7462-0.1944 1.3286-0.5883 1.7591-0.3947 0.4245-0.9645 0.6367-1.7107 0.6367h-2.0986c-0.7462 0-1.3167-0.2122-1.7107-0.6367-0.3947-0.4305-0.5883-1.0129-0.5883-1.7591z"/>
   <path d="m514.67 387.97v-22.121c0-0.461 0.1579-0.8549 0.4789-1.1886 0.3217-0.3336 0.7097-0.4974 1.1707-0.4974h13.557c7.1516 0 10.73 3.2991 10.736 9.8989 6e-3 6.5997-3.5725 9.8989-10.736 9.8989h-8.51v4.0036c0 0.461-0.1638 0.8617-0.4915 1.1827-0.3217 0.3276-0.7157 0.4915-1.1767 0.4915h-3.3423c-0.461 0-0.855-0.1639-1.1886-0.4915-0.3337-0.321-0.4975-0.7157-0.4975-1.1767zm6.6966-9.0313h6.4843c1.9892 0 3.4936-0.3336 4.525-1.0009 1.0307-0.6733 1.5468-1.9654 1.5468-3.8763 0-1.911-0.5161-3.2024-1.5468-3.8756-1.0314-0.6673-2.5358-1.0009-4.525-1.0009h-6.4843zm24.281 5.9079c-2.3898-1.6682-3.5851-4.3194-3.5851-7.9581 0-3.6336 1.1953-6.2841 3.5851-7.9403 2.3898-1.6623 5.6108-2.4934 9.6628-2.4934v-1.7464c0-0.4609 0.1639-0.8557 0.4975-1.1833 0.3336-0.327 0.7395-0.4908 1.2251-0.4908h3.2693c0.4848 0 0.8915 0.1638 1.2132 0.4908 0.3277 0.3276 0.4915 0.7224 0.4915 1.1833v1.7464c4.0513 0 7.2663 0.8311 9.6621 2.4934 2.3898 1.6562 3.5851 4.3067 3.5851 7.9403 0 3.6387-1.1953 6.2899-3.5851 7.9581-2.3958 1.6675-5.6108 2.4986-9.6621 2.4986v1.7292c0 0.4543-0.1698 0.849-0.5034 1.17-0.3404 0.3217-0.7403 0.4856-1.2013 0.4856h-3.2693c-0.461 0-0.8617-0.1639-1.2072-0.4856-0.3456-0.321-0.5154-0.7157-0.5154-1.17v-1.7292c-4.052 0-7.273-0.8311-9.6628-2.4986zm4.9189-12.193c-1.2065 0.9287-1.8074 2.3415-1.8074 4.2346 0 1.8983 0.6009 3.3118 1.8074 4.2516 1.2013 0.9339 2.8516 1.4016 4.9375 1.4016v-11.283c-2.0859 0-3.7362 0.4669-4.9375 1.3948zm11.264 9.8878c2.0808 0 3.7244-0.4677 4.9256-1.4016 1.2013-0.9398 1.8015-2.3533 1.8015-4.2516 0-1.8931-0.6002-3.3059-1.8015-4.2346-1.2012-0.9279-2.8448-1.3948-4.9256-1.3948z"/>
   <path d="m276.55 408.05c-0.1601 1.3628-0.6613 2.4136-1.5103 3.1539-0.846 0.7402-1.9705 1.1119-3.3751 1.1119-1.523 0-2.7436-0.5467-3.6618-1.637-0.9153-1.094-1.3748-2.5566-1.3748-4.3871v-1.2393c0-1.199 0.2115-2.2535 0.6405-3.1628 0.4289-0.9093 1.0329-1.6079 1.8186-2.0942s1.695-0.7313 2.7257-0.7313c1.3718 0 2.468 0.3813 3.2932 1.1454 0.8274 0.7641 1.3085 1.8216 1.444 3.1755h-1.7099c-0.1452-1.0307-0.4654-1.774-0.9577-2.2327-0.496-0.4625-1.1849-0.6919-2.0696-0.6919-1.0851 0-1.937 0.4014-2.5529 1.205-0.6167 0.8013-0.925 1.946-0.925 3.4265v1.2482c0 1.4015 0.2935 2.5134 0.8766 3.3416 0.5861 0.8244 1.4016 1.2384 2.4531 1.2384 0.9428 0 1.6675-0.2144 2.1724-0.6404 0.5042-0.426 0.84-1.1693 1.0031-2.2297zm6.0368 4.2658c-1.2958 0-2.3534-0.426-3.1688-1.278-0.8133-0.8549-1.2206-1.9936-1.2206-3.4228v-0.3023c0-0.9488 0.1809-1.7978 0.5436-2.544s0.8698-1.3323 1.523-1.7524c0.6524-0.423 1.3591-0.6345 2.121-0.6345 1.2444 0 2.211 0.4111 2.9029 1.2296 0.6889 0.8222 1.0367 1.9973 1.0367 3.5263v0.6829h-6.4903c0.0245 0.9421 0.2993 1.7039 0.8281 2.2841 0.5288 0.5801 1.1998 0.8698 2.0152 0.8698 0.5772 0 1.0665-0.1177 1.4686-0.3537 0.4014-0.2354 0.7522-0.5467 1.0546-0.9332l1.0001 0.7797c-0.8043 1.2326-2.0092 1.8485-3.6141 1.8485zm-0.2018-8.5927c-0.6621 0-1.2147 0.242-1.6653 0.7254-0.4468 0.4833-0.7253 1.1602-0.8311 2.0301h4.7983v-0.1236c-0.0484-0.8371-0.2718-1.4835-0.674-1.943-0.4014-0.4588-0.9458-0.6889-1.6279-0.6889zm12.85 0.1631h-3.215v8.2486h-1.6377v-8.2486h-3.1509v-1.3234h8.0036zm3.3803 1.9765h2.4866c1.0881 0.0119 1.946 0.2956 2.5775 0.849 0.6316 0.5555 0.9451 1.3047 0.9451 2.2565 0 0.9547-0.3232 1.7226-0.9726 2.2997-0.6494 0.5772-1.523 0.8669-2.6192 0.8669h-4.0551v-9.572h1.6377zm0 1.3412v3.5896h2.4353c0.6136 0 1.088-0.1571 1.4231-0.4714 0.3381-0.3143 0.5072-0.7462 0.5072-1.2936 0-0.5287-0.1661-0.9607-0.4923-1.2988-0.3291-0.3381-0.7857-0.5138-1.3777-0.5258zm18.73-3.2812h-4.417v8.2121h-1.6466v-9.572h6.0636zm7.3296 8.2121c-0.0938-0.1877-0.1691-0.5228-0.2294-1.0061-0.7618 0.7916-1.6712 1.1871-2.7257 1.1871-0.9458 0-1.7188-0.2659-2.3235-0.8006-0.604-0.5347-0.9064-1.2117-0.9064-2.0302 0-0.9971 0.3776-1.7732 1.1365-2.3235 0.7581-0.5526 1.8246-0.8274 3.1993-0.8274h1.5923v-0.7529c0-0.5705-0.1691-1.027-0.5109-1.3681-0.3441-0.3388-0.849-0.5079-1.5133-0.5079-0.5861 0-1.0754 0.1482-1.4716 0.4409-0.3954 0.2964-0.592 0.6531-0.592 1.0694h-1.6466c0-0.4773 0.169-0.9391 0.5071-1.3867 0.3418-0.4438 0.8013-0.7976 1.3845-1.0575 0.5801-0.2599 1.2176-0.3895 1.9154-0.3895 1.1029 0 1.9668 0.2748 2.5924 0.8282 0.6248 0.5496 0.9518 1.3107 0.9726 2.2781v4.408c0 0.8788 0.1147 1.5774 0.3381 2.0964v0.1423zm-2.716-1.2147c0.5131 0 1.0001-0.1325 1.4589-0.4014 0.4625-0.2666 0.7946-0.6166 1.0002-1.0426v-1.9825h-1.281c-2.0063 0-3.0094 0.5928-3.0094 1.777 0 0.5168 0.169 0.9212 0.5109 1.2116 0.344 0.2927 0.7827 0.4379 1.3204 0.4379zm11.934-5.7522c0-0.4476-0.172-0.8043-0.5138-1.0672-0.3411-0.2629-0.8125-0.3955-1.4076-0.3955-0.5771 0-1.0605 0.1512-1.4477 0.4536-0.3865 0.3016-0.5802 0.6553-0.5802 1.0634h-1.6279c0-0.8311 0.347-1.514 1.0448-2.0428 0.6948-0.5317 1.5654-0.7976 2.611-0.7976 1.1208 0 1.9937 0.2421 2.6192 0.7224 0.6256 0.4833 0.9399 1.1692 0.9399 2.0607 0 0.4319-0.1303 0.8274-0.3903 1.1901-0.2599 0.3597-0.6285 0.6464-1.1059 0.8579 1.1149 0.3776 1.6712 1.1208 1.6712 2.2297 0 0.8765-0.3381 1.5743-1.0181 2.0852-0.6769 0.5131-1.5832 0.7701-2.716 0.7701-1.1029 0-2.0122-0.2689-2.7316-0.8095-0.7165-0.5407-1.0754-1.272-1.0754-2.191h1.628c0 0.4654 0.2085 0.8646 0.6255 1.1967 0.4171 0.3322 0.9339 0.4983 1.5535 0.4983 0.6249 0 1.1298-0.1445 1.5133-0.432 0.3835-0.2867 0.5772-0.6583 0.5772-1.1178 0-0.5317-0.1631-0.9153-0.4834-1.1476-0.3232-0.2331-0.8221-0.3478-1.5013-0.3478h-1.6377v-1.3956h1.7792c1.1148-0.0306 1.6741-0.4901 1.6741-1.3837zm3.5017 2.0934c0-0.9399 0.1847-1.7829 0.5534-2.5321 0.3686-0.7522 0.8817-1.3293 1.5408-1.7367 0.6554-0.4081 1.4075-0.6107 2.2506-0.6107 1.3055 0 2.36 0.4498 3.1665 1.3539 0.8036 0.9034 1.2058 2.1054 1.2058 3.6045v0.1147c0 0.9332-0.1788 1.7702-0.5348 2.5105-0.3567 0.7403-0.8676 1.3174-1.5319 1.7315-0.662 0.4141-1.4261 0.6189-2.2878 0.6189-1.2988 0-2.3503-0.4499-3.1539-1.3532-0.8065-0.9034-1.2087-2.1001-1.2087-3.5866zm1.6466 0.1906c0 1.0605 0.245 1.9155 0.7373 2.5589 0.4923 0.6435 1.1543 0.9637 1.9787 0.9637 0.8312 0 1.4932-0.3262 1.9825-0.9786 0.4893-0.6531 0.7343-1.5654 0.7343-2.7406 0-1.0515-0.248-1.9005-0.7462-2.5529-0.499-0.6531-1.1603-0.9793-1.9884-0.9793-0.8066 0-1.459 0.3202-1.9549 0.9637-0.4953 0.6442-0.7433 1.5654-0.7433 2.7651zm9.2756 4.6829v-9.572h3.7348c1.275 0 2.2536 0.2242 2.9365 0.668 0.6799 0.4439 1.021 1.097 1.021 1.9579 0 0.4439-0.1326 0.843-0.3984 1.1998-0.2659 0.3559-0.6591 0.6278-1.1752 0.8184 0.5764 0.1363 1.0419 0.3992 1.3926 0.7946 0.35 0.3955 0.5258 0.8669 0.5258 1.4173 0 0.8787-0.3232 1.5497-0.9704 2.0182-0.6434 0.4654-1.5587 0.6978-2.7369 0.6978zm1.6377-4.2055v2.8821h2.71c0.6829 0 1.1968-0.1266 1.5349-0.3806 0.3389-0.2539 0.5079-0.6106 0.5079-1.0694 0-0.9547-0.7015-1.4321-2.1061-1.4321zm0-1.3055h2.115c1.5349 0 2.3019-0.4498 2.3019-1.3472s-0.7246-1.3599-2.1783-1.3904h-2.2386zm10.357-0.7611h2.4866c1.0843 0.0119 1.946 0.2956 2.5775 0.849 0.6316 0.5555 0.9451 1.3047 0.9451 2.2565 0 0.9547-0.3232 1.7226-0.9726 2.2997-0.6494 0.5772-1.523 0.8669-2.6192 0.8669h-4.0551v-9.572h1.6377zm9.4267 6.2721h-1.6466v-9.572h1.6466zm-9.4267-4.9309v3.5896h2.4323c0.6166 0 1.091-0.1571 1.4261-0.4714 0.3381-0.3143 0.5042-0.7462 0.5042-1.2936 0-0.5287-0.1631-0.9607-0.4893-1.2988-0.3292-0.3381-0.7887-0.5138-1.3777-0.5258zm15.503-1.1483 2.1239-3.4928h1.9125l-3.1361 4.732 3.2329 4.84h-1.8946l-2.2148-3.5836-2.2111 3.5836h-1.9035l3.2328-4.84-3.136-4.732h1.8938zm15.528-0.8877c0-0.4476-0.172-0.8043-0.5138-1.0672-0.3411-0.2629-0.8125-0.3955-1.4076-0.3955-0.5771 0-1.0605 0.1512-1.4477 0.4536-0.3865 0.3016-0.5802 0.6553-0.5802 1.0634h-1.6279c0-0.8311 0.347-1.514 1.0448-2.0428 0.6948-0.5317 1.5654-0.7976 2.611-0.7976 1.1208 0 1.9937 0.2421 2.6192 0.7224 0.6256 0.4833 0.9399 1.1692 0.9399 2.0607 0 0.4319-0.1303 0.8274-0.3903 1.1901-0.2599 0.3597-0.6285 0.6464-1.1059 0.8579 1.1149 0.3776 1.6712 1.1208 1.6712 2.2297 0 0.8765-0.3381 1.5743-1.018 2.0852-0.677 0.5131-1.5833 0.7701-2.7161 0.7701-1.1029 0-2.0122-0.2689-2.7316-0.8095-0.7165-0.5407-1.0754-1.272-1.0754-2.191h1.628c0 0.4654 0.2085 0.8646 0.6255 1.1967 0.4171 0.3322 0.9339 0.4983 1.5535 0.4983 0.6249 0 1.1298-0.1445 1.5133-0.432 0.3836-0.2867 0.5772-0.6583 0.5772-1.1178 0-0.5317-0.1631-0.9153-0.4833-1.1476-0.3233-0.2331-0.8222-0.3478-1.5014-0.3478h-1.6377v-1.3956h1.7792c1.1148-0.0306 1.6741-0.4901 1.6741-1.3837zm9.8498 6.9669c-0.0938-0.1877-0.1691-0.5228-0.2294-1.0061-0.7618 0.7916-1.6712 1.1871-2.7257 1.1871-0.9458 0-1.7188-0.2659-2.3235-0.8006-0.604-0.5347-0.9064-1.2117-0.9064-2.0302 0-0.9971 0.3776-1.7732 1.1365-2.3235 0.7581-0.5526 1.8246-0.8274 3.1993-0.8274h1.5923v-0.7529c0-0.5705-0.1691-1.027-0.5109-1.3681-0.3441-0.3388-0.849-0.5079-1.5133-0.5079-0.5861 0-1.0754 0.1482-1.4716 0.4409-0.3954 0.2964-0.5921 0.6531-0.5921 1.0694h-1.6465c0-0.4773 0.169-0.9391 0.5071-1.3867 0.3418-0.4438 0.8013-0.7976 1.3845-1.0575 0.5801-0.2599 1.2176-0.3895 1.9154-0.3895 1.1029 0 1.9668 0.2748 2.5924 0.8282 0.6248 0.5496 0.9518 1.3107 0.9726 2.2781v4.408c0 0.8788 0.1147 1.5774 0.3381 2.0964v0.1423zm-2.716-1.2147c0.5131 0 1.0001-0.1325 1.4589-0.4014 0.4625-0.2666 0.7946-0.6166 1.0002-1.0426v-1.9825h-1.281c-2.0063 0-3.0094 0.5928-3.0094 1.777 0 0.5168 0.169 0.9212 0.5109 1.2116 0.344 0.2927 0.7827 0.4379 1.3204 0.4379zm14.499 1.2147h-1.6377v-8.2121h-4.408v8.2121h-1.6466v-9.572h7.6923zm10.72-4.6799c0 1.4589-0.3352 2.6311-1.0002 3.5226-0.6673 0.8914-1.5706 1.3383-2.7101 1.3383-1.1602 0-2.0755-0.3687-2.7435-1.1052v4.6039h-1.6377v-13.252h1.4962l0.0811 1.0575c0.6651-0.8244 1.5923-1.2385 2.7771-1.2385 1.1506 0 2.0629 0.435 2.7309 1.3026 0.671 0.8668 1.0062 2.0725 1.0062 3.6193zm-1.6377-0.1847c0-1.0783-0.2294-1.9303-0.6918-2.5559-0.4595-0.6256-1.0911-0.9368-1.8946-0.9368-0.9905 0-1.7338 0.4386-2.2297 1.3174v4.5711c0.4892 0.8736 1.2392 1.3085 2.2483 1.3085 0.7849 0 1.4105-0.3113 1.873-0.9339 0.4625-0.6218 0.6948-1.5438 0.6948-2.7704zm9.6293 4.8646c-0.0938-0.1877-0.169-0.5228-0.2293-1.0061-0.7619 0.7916-1.6712 1.1871-2.7257 1.1871-0.9458 0-1.7189-0.2659-2.3236-0.8006-0.604-0.5347-0.9063-1.2117-0.9063-2.0302 0-0.9971 0.3776-1.7732 1.1364-2.3235 0.7582-0.5526 1.8246-0.8274 3.1994-0.8274h1.5922v-0.7529c0-0.5705-0.169-1.027-0.5109-1.3681-0.344-0.3388-0.849-0.5079-1.5133-0.5079-0.5861 0-1.0754 0.1482-1.4715 0.4409-0.3955 0.2964-0.5921 0.6531-0.5921 1.0694h-1.6466c0-0.4773 0.1691-0.9391 0.5072-1.3867 0.3418-0.4438 0.8013-0.7976 1.3844-1.0575 0.5802-0.2599 1.2176-0.3895 1.9154-0.3895 1.103 0 1.9669 0.2748 2.5924 0.8282 0.6249 0.5496 0.9518 1.3107 0.9727 2.2781v4.408c0 0.8788 0.1146 1.5774 0.3381 2.0964v0.1423zm-2.716-1.2147c0.5131 0 1.0002-0.1325 1.4589-0.4014 0.4625-0.2666 0.7947-0.6166 1.0002-1.0426v-1.9825h-1.2809c-2.0063 0-3.0095 0.5928-3.0095 1.777 0 0.5168 0.1691 0.9212 0.5109 1.2116 0.3441 0.2927 0.7827 0.4379 1.3204 0.4379zm6.8128 1.2147v-9.572h3.7348c1.275 0 2.2535 0.2242 2.9364 0.668 0.68 0.4439 1.0211 1.097 1.0211 1.9579 0 0.4439-0.1326 0.843-0.3985 1.1998-0.2658 0.3559-0.659 0.6278-1.1751 0.8184 0.5764 0.1363 1.0418 0.3992 1.3926 0.7946 0.35 0.3955 0.5258 0.8669 0.5258 1.4173 0 0.8787-0.3232 1.5497-0.9704 2.0182-0.6434 0.4654-1.5587 0.6978-2.7369 0.6978zm1.6376-4.2055v2.8821h2.7101c0.6829 0 1.1968-0.1266 1.5349-0.3806 0.3388-0.2539 0.5079-0.6106 0.5079-1.0694 0-0.9547-0.7016-1.4321-2.1061-1.4321zm0-1.3055h2.1151c1.5348 0 2.3019-0.4498 2.3019-1.3472s-0.7246-1.3599-2.1783-1.3904h-2.2387zm8.1362 0.6375c0-0.9399 0.1847-1.7829 0.5533-2.5321 0.3687-0.7522 0.8818-1.3293 1.5409-1.7367 0.6553-0.4081 1.4075-0.6107 2.2505-0.6107 1.3055 0 2.3601 0.4498 3.1666 1.3539 0.8036 0.9034 1.2057 2.1054 1.2057 3.6045v0.1147c0 0.9332-0.1787 1.7702-0.5347 2.5105-0.3567 0.7403-0.8676 1.3174-1.5319 1.7315-0.6621 0.4141-1.4262 0.6189-2.2878 0.6189-1.2988 0-2.3504-0.4499-3.1539-1.3532-0.8066-0.9034-1.2087-2.1001-1.2087-3.5866zm1.6466 0.1906c0 1.0605 0.245 1.9155 0.7373 2.5589 0.4922 0.6435 1.1543 0.9637 1.9787 0.9637 0.8311 0 1.4932-0.3262 1.9825-0.9786 0.4892-0.6531 0.7343-1.5654 0.7343-2.7406 0-1.0515-0.248-1.9005-0.7463-2.5529-0.4989-0.6531-1.1602-0.9793-1.9884-0.9793-0.8065 0-1.4589 0.3202-1.9549 0.9637-0.4952 0.6442-0.7432 1.5654-0.7432 2.7651zm16.355 4.6829h-1.6436v-3.4749c-0.7224 0.1906-1.4597 0.2845-2.2148 0.2845-1.1968 0-2.1121-0.3083-2.7406-0.922-0.6286-0.6129-0.9488-1.4865-0.9577-2.6192v-2.8583h1.6376v2.9127c0.0276 1.4291 0.7165 2.1455 2.0607 2.1455 0.7551 0 1.4924-0.0938 2.2148-0.2845v-4.7558h1.6436zm10.451 0h-1.6377v-4.0789h-4.3991v4.0789h-1.6466v-9.572h1.6466v4.1519h4.3991v-4.1519h1.6377zm4.414-6.2721h2.4866c1.0843 0.0119 1.946 0.2956 2.5775 0.849 0.6316 0.5555 0.9451 1.3047 0.9451 2.2565 0 0.9547-0.3232 1.7226-0.9726 2.2997-0.6494 0.5772-1.523 0.8669-2.6192 0.8669h-4.0551v-9.572h1.6377zm9.4267 6.2721h-1.6466v-9.572h1.6466zm-9.4267-4.9309v3.5896h2.4323c0.6166 0 1.091-0.1571 1.4261-0.4714 0.3381-0.3143 0.5042-0.7462 0.5042-1.2936 0-0.5287-0.1631-0.9607-0.4893-1.2988-0.3292-0.3381-0.7887-0.5138-1.3777-0.5258zm15.503-1.1483 2.1239-3.4928h1.9125l-3.1361 4.732 3.2329 4.84h-1.8946l-2.2148-3.5836-2.2111 3.5836h-1.9035l3.2328-4.84-3.136-4.732h1.8938zm14.095 4.9189c0.5861 0 1.0963-0.175 1.5319-0.5288 0.4379-0.3537 0.6792-0.7946 0.7246-1.3263h1.5506c-0.0306 0.5496-0.2182 1.0724-0.5653 1.5684-0.3507 0.4952-0.8155 0.8914-1.3956 1.1871-0.5801 0.2934-1.1968 0.4409-1.8462 0.4409-1.3025 0-2.3414-0.435-3.1122-1.3048-0.7671-0.8706-1.1543-2.0637-1.1543-3.5747v-0.2748c0-0.9302 0.1728-1.7613 0.5138-2.4867 0.3411-0.7246 0.8341-1.2898 1.4746-1.692 0.6405-0.4014 1.3956-0.601 2.2692-0.601 1.0754 0 1.9668 0.3203 2.6795 0.9637 0.7105 0.6435 1.0881 1.4805 1.1365 2.5045h-1.5506c-0.0454-0.6188-0.2807-1.1297-0.7037-1.5282-0.4201-0.3991-0.9428-0.5987-1.5617-0.5987-0.8311 0-1.4746 0.2994-1.9341 0.8974-0.4557 0.6017-0.6859 1.4656-0.6859 2.6013v0.3083c0 1.103 0.2264 1.9549 0.6829 2.55 0.4536 0.595 1.103 0.8944 1.946 0.8944zm12.771-7.0883h-3.2149v8.2486h-1.6377v-8.2486h-3.1509v-1.3234h8.0035zm7.3632 8.2486c-0.0939-0.1877-0.1691-0.5228-0.2294-1.0061-0.7619 0.7916-1.6712 1.1871-2.7257 1.1871-0.9458 0-1.7188-0.2659-2.3236-0.8006-0.6039-0.5347-0.9063-1.2117-0.9063-2.0302 0-0.9971 0.3776-1.7732 1.1365-2.3235 0.7581-0.5526 1.8245-0.8274 3.1993-0.8274h1.5922v-0.7529c0-0.5705-0.169-1.027-0.5108-1.3681-0.3441-0.3388-0.849-0.5079-1.5133-0.5079-0.5861 0-1.0754 0.1482-1.4716 0.4409-0.3955 0.2964-0.5921 0.6531-0.5921 1.0694h-1.6466c0-0.4773 0.1691-0.9391 0.5072-1.3867 0.3418-0.4438 0.8013-0.7976 1.3844-1.0575 0.5802-0.2599 1.2177-0.3895 1.9155-0.3895 1.1029 0 1.9668 0.2748 2.5924 0.8282 0.6248 0.5496 0.9517 1.3107 0.9726 2.2781v4.408c0 0.8788 0.1147 1.5774 0.3381 2.0964v0.1423zm-2.7161-1.2147c0.5132 0 1.0002-0.1325 1.459-0.4014 0.4624-0.2666 0.7946-0.6166 1.0001-1.0426v-1.9825h-1.2809c-2.0063 0-3.0094 0.5928-3.0094 1.777 0 0.5168 0.169 0.9212 0.5108 1.2116 0.3441 0.2927 0.7828 0.4379 1.3204 0.4379zm14.49 1.2147h-1.6377v-4.0789h-4.3991v4.0789h-1.6465v-9.572h1.6465v4.1519h4.3991v-4.1519h1.6377zm2.7704-9.572h1.6466v8.2307h4.408v-8.2307h1.6377v8.2307h1.1424l-0.1601 4.1876h-1.4686v-2.8463h-7.206zm16.793 0h1.6377v9.572h-1.6377v-6.9796l-4.4169 6.9796h-1.6377v-9.572h1.6377v6.9885zm10.463 0h1.6377v9.572h-1.6377v-6.9796l-4.417 6.9796h-1.6376v-9.572h1.6376v6.9885zm0.4446-3.5166c0 0.7194-0.245 1.2995-0.7313 1.7374s-1.1268 0.6554-1.9154 0.6554c-0.7917 0-1.4322-0.2204-1.9222-0.6613-0.4893-0.4387-0.7335-1.0181-0.7335-1.7315h1.3353c0 0.4141 0.1117 0.7373 0.3351 0.9726 0.2264 0.2331 0.5533 0.3508 0.9853 0.3508 0.4103 0 0.7343-0.1147 0.9666-0.3478 0.2353-0.2294 0.3508-0.5556 0.3508-0.9756z"/>
  </g>
  <g fill="#008e4b">
   <path d="m431.99 179.46c-23.764 7.4736-55.387 24.376-58.989 50.692-5.3321 33.035 35.392 56.616 41.444 81.442 2.3504 9.6401 2.4346 22.356-2.7329 29.206l-0.4887 0.6482c-0.4836 0.6935-0.9917 1.3668-1.5229 2.0188l-0.8567 1.136c18.626-8.048 36.2-20.005 37.406-41.885 2.1581-39.188-39.592-52.55-31.024-95.414 2.2775-11.394 8.4076-21.037 16.764-27.844z"/>
   <path d="m422.47 200.47c-1.3033 22.914 23.231 35.004 36.447 51.556 10.486 13.133 16.63 36.352-8.2441 56.096 0.277-1.6461 0.4674-3.3477 0.5644-5.1064 0.4744-8.6108-0.9303-15.99-3.4017-22.667-0.7626-2.149-1.6708-4.2211-2.6908-6.2486-3.0669-6.2657-6.9371-12.004-10.806-17.74-9.1872-13.62-18.369-27.233-14.203-48.076 0.5451-2.7274 1.3325-5.3376 2.3345-7.8133z"/>
   <path d="m409.16 335.25c-1.1543-23.605-27.613-32.291-43.167-47.1-12.423-11.827-21.788-34.678 1.9586-58.118-1.0851 7.4308-0.1617 14.326 2.0477 20.825 1.3331 4.4858 3.3034 8.4373 5.6946 12.131 4.5667 7.7351 10.474 14.965 16.206 21.979 7.9574 9.7369 15.54 19.016 17.681 27.801 0.9773 4.0094 1.5251 8.5862 1.3842 12.948-0.1732 2.1552-0.4751 4.4349-0.9097 6.867-0.2452 0.9471-0.5426 1.8414-0.8961 2.6665z"/>
  </g>
 </g>
</svg>
