<svg width="34" height="34" viewBox="0 0 34 34" fill="none" xmlns="http://www.w3.org/2000/svg">
<mask id="mask0" mask-type="alpha" maskUnits="userSpaceOnUse" x="0" y="0" width="34" height="34">
<path d="M33.6448 32.7636L32.753 28.452C32.3605 26.873 31.1703 25.6032 29.602 25.09L23.5345 23.1018C22.0548 22.4955 21.3778 20.152 21.2316 19.2623C22.359 18.3402 23.0845 17.0284 23.2587 15.5965C23.2338 15.3519 23.2925 15.1061 23.4255 14.898C23.6405 14.845 23.8165 14.6936 23.8985 14.4911C24.2955 13.5457 24.5447 12.5466 24.6376 11.5278C24.6378 11.4724 24.6309 11.4173 24.617 11.3637C24.5182 10.9679 24.2815 10.6185 23.9481 10.3764V6.78103C23.9481 4.59617 23.2697 3.69973 22.5553 3.18028C22.4189 2.1279 21.273 0 17.0533 0C13.3096 0.148251 10.3091 3.09916 10.1584 6.7811V10.3764C9.82499 10.6186 9.58834 10.9679 9.48957 11.3638C9.47561 11.4174 9.46869 11.4726 9.46889 11.5279C9.56171 12.5471 9.8109 13.5467 10.208 14.4926C10.2678 14.6842 10.4244 14.8317 10.6217 14.8818C10.699 14.9198 10.8438 15.1165 10.8438 15.5966C11.019 17.0326 11.7487 18.3474 12.8819 19.2692C12.7371 20.1575 12.0642 22.4997 10.6259 23.091L4.50462 25.0901C2.93755 25.6032 1.74818 26.8717 1.35504 28.4494L0.441487 32.5492C0.347824 32.9122 0.200691 32.7724 0.569784 32.8646C0.624922 32.8784 1.15429 32.7383 1.21118 32.7384C1.21118 32.7384 10.7877 34 16.9893 34C23.1909 34 32.7674 32.9907 32.7674 32.9907C33.1482 32.9906 33.6654 33.3021 33.6654 32.9276C33.6653 32.8723 33.6584 32.8172 33.6448 32.7636Z" fill="white"/>
</mask>
<g mask="url(#mask0)">
<circle cx="17" cy="14" r="19" fill="#EEF2F7"/>
</g>
</svg>
