<svg width="45" height="45" viewBox="0 0 45 45" fill="none" xmlns="http://www.w3.org/2000/svg">
<path d="M22.5 0C18.0499 0 13.6998 1.3196 9.99968 3.79193C6.29957 6.26426 3.41569 9.77828 1.71272 13.8896C0.00974893 18.001 -0.435826 22.525 0.432341 26.8895C1.30051 31.2541 3.44343 35.2632 6.59011 38.4099C9.73679 41.5566 13.7459 43.6995 18.1105 44.5677C22.475 45.4358 26.999 44.9903 31.1104 43.2873C35.2217 41.5843 38.7357 38.7004 41.2081 35.0003C43.6804 31.3002 45 26.9501 45 22.5C45 16.5326 42.6295 10.8097 38.4099 6.5901C34.1903 2.37053 28.4674 0 22.5 0V0ZM31.3256 28.6744L28.6744 31.3256L22.5 25.1512L16.3256 31.3256L13.6744 28.6744L19.8488 22.5L13.6744 16.3256L16.3256 13.6744L22.5 19.8487L28.6744 13.6744L31.3256 16.3256L25.1513 22.5L31.3256 28.6744Z" fill="#EB4B4D"/>
</svg>
