<svg width="37" height="15" viewBox="0 0 37 15" fill="none" xmlns="http://www.w3.org/2000/svg">
<path d="M36.5415 11.1894C35.9194 11.3207 34.9863 10.9454 34.9863 10.9454L34.4599 10.4951C34.4599 10.4951 34.3283 9.96965 33.5268 9.31288C33.5268 9.31288 32.7252 8.14947 32.1869 7.79294C32.1869 7.79294 31.7681 7.19247 31.0025 6.87347C31.0025 6.87347 30.4761 6.32929 30.2368 5.8977L30.0933 5.76635C30.0933 5.76635 29.4113 4.84688 29.4353 4.75305C29.4592 4.65923 29.2558 4.50911 29.1362 4.47158C29.0165 4.43405 28.6696 4.41529 28.6696 4.41529L28.3705 4.03999C28.3705 4.03999 28.1671 3.94617 28.0475 4.00246C27.9279 4.05876 27.5809 3.62717 27.5809 3.62717C27.5809 3.62717 27.2818 3.49581 26.9828 3.57087C26.9828 3.57087 26.7674 3.51458 26.576 3.15805C26.576 3.15805 26.3367 2.83905 26.0377 3.19558C26.0377 3.19558 25.7146 3.32693 25.4514 2.82028C25.4514 2.82028 25.3916 2.59511 24.7456 2.91411C24.7456 2.91411 24.4226 2.78275 24.279 2.50128C24.1355 2.21981 23.8005 2.72646 23.8005 2.72646C23.8005 2.72646 23.2023 2.50128 23.1425 2.35117C23.0827 2.20105 22.8554 2.40746 22.8554 2.40746L22.2572 2.44499C22.2572 2.44499 21.8505 2.03217 21.671 2.21981C21.671 2.21981 21.5873 2.31364 21.6112 2.44499C21.6112 2.44499 21.1207 2.40746 20.7379 2.18228C20.7379 2.18228 20.4029 2.14475 20.2474 2.42622C20.2474 2.42622 19.9483 2.42622 19.6851 2.27611C19.4219 2.12599 19.1467 2.59511 19.1467 2.59511C19.1467 2.59511 18.4887 2.59511 18.2614 2.36993C18.0341 2.14475 17.8427 2.59511 17.8427 2.59511C17.8427 2.59511 17.6393 2.78275 17.3163 2.59511C16.9933 2.40746 16.5507 2.53881 16.5507 2.53881C16.5507 2.53881 16.6942 2.87658 16.5148 2.98917C16.3353 3.08299 14.8877 2.95164 14.5288 2.42622C14.1699 1.90081 12.0763 0.0243389 12.0763 0.0243389C12.0763 0.0243389 11.7533 -0.200838 11.538 0.718634C11.3226 1.63811 11.0355 2.63264 11.0355 2.63264C11.0355 2.63264 10.5091 3.32693 9.69561 3.85234C9.69561 3.85234 9.27689 4.35899 10.222 4.32146L9.54009 4.50911C9.54009 4.50911 8.05662 4.92193 7.17133 4.45282C6.28603 3.9837 1.15372 0.474692 1.01016 0.437163C0.866603 0.399634 0.220578 0.118163 0.0291629 0.380869C-0.162252 0.643575 0.651261 1.35663 0.651261 1.35663C0.651261 1.35663 2.21847 4.97823 3.18751 5.8977C3.18751 5.8977 3.59426 6.55447 3.2234 7.69911C2.85253 8.84376 3.2234 9.0877 3.2234 9.0877C3.2234 9.0877 3.28321 9.18153 3.76175 8.86253C4.24029 8.54353 7.81735 6.8547 7.81735 6.8547C7.81735 6.8547 8.70265 6.70458 8.96584 6.81717C8.96584 6.81717 9.06155 6.94853 8.87013 7.64282C8.87013 7.64282 8.7505 8.80623 9.04959 8.80623C9.34867 8.80623 9.4683 9.55682 12.1601 7.60529C12.1601 7.60529 12.5788 7.26753 13.1411 7.41764C13.7034 7.56776 14.481 7.56776 14.481 7.56776L14.5408 7.60529L14.5647 7.98059C14.5647 7.98059 14.7801 9.36918 15.3663 9.05018C15.3663 9.05018 17.1369 9.144 17.6752 8.506C17.6752 8.506 17.8906 8.16823 18.2614 8.46847C18.2614 8.46847 19.8047 8.97512 21.013 9.12523C22.2213 9.27535 25.2122 10.3825 25.2122 10.3825L25.1284 10.5138C25.1284 10.5138 22.4965 11.7148 21.7547 12.7468C21.013 13.7789 24.9131 11.5271 24.9131 11.5271L26.5401 10.9642C26.5401 10.9642 27.2579 10.9079 27.5809 11.1143C27.5809 11.1143 27.7365 11.3958 28.0714 11.6585C27.0665 10.4763 27.7245 9.01265 28.3346 8.35588C28.9208 7.71788 29.4353 7.8117 29.4353 7.8117C28.5859 8.1307 27.8681 8.99388 27.6886 9.63188C27.4374 10.5326 27.9638 11.4521 28.1073 11.6585C28.3227 11.8274 28.6217 11.9962 28.9926 12.0713C29.0883 12.0901 29.196 12.1088 29.3156 12.1276C29.3156 12.1276 29.4113 12.1464 29.5429 12.1839C29.7463 12.2402 30.0574 12.3152 30.2966 12.4091C30.5598 12.5217 30.8469 12.5779 31.1221 12.5779C31.6844 12.5592 32.5697 12.5592 32.9645 12.7281L33.3832 12.7656C33.3832 12.7656 32.9405 14.1167 32.9645 14.248C32.9884 14.3794 32.9405 14.7547 33.0841 14.9986C33.0841 14.9986 33.2277 15.0549 33.0841 14.4544C33.0841 14.4544 33.2994 13.0095 33.5866 12.8407C33.5866 12.8407 32.8807 14.3231 33.3473 14.7359C33.3473 14.7359 33.3832 14.7734 33.3832 14.6796C33.3832 14.5858 33.12 14.4544 33.7421 12.8594L33.9215 12.8219C33.9215 12.8219 33.2755 14.5482 33.7182 14.7734C33.7182 14.7734 33.8019 14.7734 33.6584 14.5295C33.5148 14.2855 34.101 12.8031 34.101 12.8031L34.2206 12.7656C34.2206 12.7656 33.6942 14.248 34.0651 14.6796C34.0651 14.6796 34.1249 14.7171 34.0651 14.4357C34.0053 14.1542 34.424 12.7093 34.424 12.7093C34.424 12.7093 36.2544 11.9212 36.5535 11.9587C36.8526 11.9962 36.9722 11.6772 36.9722 11.6772C36.9722 11.6772 37.1636 11.058 36.5415 11.1894ZM20.379 5.99152C18.1418 5.67252 8.17626 5.61623 8.17626 5.61623C28.0475 3.9837 27.892 7.98059 27.9159 8.01812C26.8272 6.94853 22.7836 6.32929 20.379 5.99152ZM32.2945 10.6827C32.2347 10.9266 32.151 11.2269 31.9356 11.2832C31.7203 11.3395 31.3733 10.8704 31.4571 10.3074C31.5408 9.74447 31.8997 9.89459 31.8997 9.89459C32.1629 9.95088 32.3543 10.42 32.2945 10.6827Z" fill="#199F84"/>
</svg>
