<?xml version="1.0" encoding="windows-1252"?>
<!-- Generator: Adobe Illustrator 19.0.0, SVG Export Plug-In . SVG Version: 6.00 Build 0)  -->
<svg xmlns="http://www.w3.org/2000/svg" xmlns:xlink="http://www.w3.org/1999/xlink" version="1.1" id="Capa_1" x="0px" y="0px" viewBox="0 0 512 512" style="enable-background:new 0 0 512 512;" xml:space="preserve" width="512px" height="512px">
<g>
	<g>
		<path d="M320.129,32.065c-12.975,0-23.532,10.557-23.532,23.532V400.29c0,22.385-18.212,40.597-40.597,40.597    s-40.597-18.212-40.597-40.597V55.597c0-12.976-10.557-23.532-23.532-23.532c-12.975,0-23.532,10.557-23.532,23.532v409.339    h-17.064V55.597c0-22.385,18.212-40.597,40.597-40.597s40.597,18.212,40.597,40.597v288.579c0,4.142,3.357,7.5,7.5,7.5    s7.5-3.358,7.5-7.5V55.597C247.468,24.94,222.527,0,191.871,0c-30.656,0-55.597,24.94-55.597,55.597v411.281    c-4.775,2.649-8.017,7.738-8.017,13.574v16.032c0,8.556,6.961,15.516,15.517,15.516h32.064c8.556,0,15.516-6.96,15.516-15.516    v-16.032c0-5.836-3.241-10.925-8.016-13.573V55.597c0-4.705,3.827-8.532,8.532-8.532s8.532,3.828,8.532,8.532V400.29    c0,30.656,24.94,55.597,55.597,55.597c30.657,0,55.597-24.941,55.597-55.597V55.597c0-4.705,3.827-8.532,8.532-8.532    s8.533,3.827,8.533,8.532v16.03c0,4.142,3.357,7.5,7.5,7.5s7.5-3.358,7.5-7.5v-16.03    C343.661,42.621,333.104,32.065,320.129,32.065z M176.354,496.484c0,0.285-0.231,0.516-0.516,0.516h-32.064    c-0.285,0-0.517-0.231-0.517-0.516v-16.032c0-0.285,0.231-0.516,0.517-0.516h32.064c0.284,0,0.516,0.231,0.516,0.516V496.484z" fill="#ff7700"/>
	</g>
</g>
<g>
	<g>
		<path d="M375.726,466.878V55.597C375.726,24.94,350.785,0,320.129,0s-55.597,24.94-55.597,55.597V400.29    c0,4.705-3.827,8.532-8.532,8.532c-4.705,0-8.532-3.827-8.532-8.532v-24.05c0-4.142-3.357-7.5-7.5-7.5s-7.5,3.358-7.5,7.5v24.05    c0,12.976,10.557,23.532,23.532,23.532c12.975,0,23.532-10.556,23.532-23.532V55.597c0-22.385,18.212-40.597,40.597-40.597    c22.385,0,40.597,18.212,40.597,40.597v409.339h-17.064v-361.24c0-4.142-3.357-7.5-7.5-7.5s-7.5,3.358-7.5,7.5v363.182    c-4.774,2.649-8.016,7.738-8.016,13.573v16.032c0,8.556,6.96,15.516,15.516,15.516h32.064c8.556,0,15.517-6.96,15.517-15.516    v-16.032C383.742,474.616,380.5,469.527,375.726,466.878z M368.742,496.484c0,0.285-0.231,0.516-0.517,0.516h-32.064    c-0.284,0-0.516-0.231-0.516-0.516v-16.032c0-0.285,0.231-0.516,0.516-0.516h32.064c0.285,0,0.517,0.231,0.517,0.516V496.484z" fill="#ff7700"/>
	</g>
</g>
<g>
</g>
<g>
</g>
<g>
</g>
<g>
</g>
<g>
</g>
<g>
</g>
<g>
</g>
<g>
</g>
<g>
</g>
<g>
</g>
<g>
</g>
<g>
</g>
<g>
</g>
<g>
</g>
<g>
</g>
</svg>