<svg width="17" height="17" viewBox="0 0 17 17" fill="none" xmlns="http://www.w3.org/2000/svg">
<path d="M8.50046 6.38055C9.20099 6.38041 9.88583 6.58805 10.4683 6.97718C11.0509 7.36631 11.5049 7.91946 11.773 8.56666C12.0411 9.21386 12.1112 9.92604 11.9745 10.6131C11.8378 11.3002 11.5004 11.9313 11.005 12.4265L8.50046 15.0168L5.99097 12.418C5.49817 11.922 5.16322 11.2912 5.02835 10.6051C4.89348 9.91906 4.96471 9.2084 5.23308 8.56274C5.50145 7.91709 5.95494 7.36532 6.53639 6.97698C7.11785 6.58864 7.80125 6.38111 8.50046 6.38055ZM8.50046 11.3294C8.78063 11.3294 9.05452 11.2463 9.28747 11.0907C9.52043 10.935 9.702 10.7138 9.80922 10.4549C9.91643 10.1961 9.94449 9.91124 9.88983 9.63645C9.83517 9.36165 9.70025 9.10924 9.50214 8.91113C9.30402 8.71302 9.05161 8.5781 8.77682 8.52344C8.50203 8.46878 8.2172 8.49683 7.95835 8.60405C7.69951 8.71127 7.47826 8.89284 7.32261 9.12579C7.16695 9.35875 7.08387 9.63263 7.08387 9.91281C7.08387 10.2885 7.23312 10.6488 7.49878 10.9145C7.76444 11.1801 8.12475 11.3294 8.50046 11.3294ZM0.816174 5.44135L7.19082 0.452123C7.56479 0.159182 8.02613 0 8.50117 0C8.97621 0 9.43755 0.159182 9.81151 0.452123L16.1862 5.43993C16.4406 5.63859 16.6462 5.89282 16.7872 6.18316C16.9283 6.4735 17.0011 6.79226 17 7.11505V17H0.000926971V7.11505C7.82013e-05 6.79235 0.0731049 6.47374 0.214415 6.18364C0.355726 5.89353 0.561569 5.63961 0.816174 5.44135ZM4.99511 13.4281L8.42609 16.9292L12.0008 13.4337C12.6956 12.7412 13.1692 11.8582 13.3619 10.8963C13.5546 9.93452 13.4577 8.93716 13.0834 8.03045C12.7091 7.12374 12.0742 6.34844 11.2591 5.80265C10.4441 5.25686 9.4854 4.96511 8.50447 4.96432C7.52354 4.96353 6.56442 5.25373 5.74847 5.7982C4.93252 6.34267 4.2964 7.11694 3.92063 8.02304C3.54485 8.92914 3.4463 9.92634 3.63744 10.8885C3.82858 11.8506 4.30081 12.7344 4.9944 13.4281H4.99511Z" fill="#199F84"/>
</svg>
