<svg width="20" height="20" viewBox="0 0 20 20" fill="none" xmlns="http://www.w3.org/2000/svg">
<path d="M19.4438 0.860715C19.4431 0.400711 19.0704 0.0278184 18.6104 0.0273438H1.38806C0.927817 0.0273438 0.554688 0.400474 0.554688 0.860715C0.554688 1.32096 0.927817 1.69409 1.38806 1.69409H1.66577V1.13843C1.66577 0.831519 1.91452 0.582766 2.22143 0.582766C2.5281 0.582766 2.77685 0.831519 2.77685 1.13843V1.69409H3.88817V1.13843C3.88817 0.831519 4.13669 0.582766 4.44359 0.582766C4.7505 0.582766 4.99925 0.831519 4.99925 1.13843V1.69409H6.11034V1.13843C6.11034 0.831519 6.35909 0.582766 6.66576 0.582766C6.97266 0.582766 7.22142 0.831519 7.22142 1.13843V1.69409H8.3325V1.13843C8.3325 0.831519 8.58125 0.582766 8.88816 0.582766C9.19483 0.582766 9.44358 0.831519 9.44358 1.13843V1.69409H10.5547V1.13843C10.5547 0.831519 10.8034 0.582766 11.1103 0.582766C11.4172 0.582766 11.666 0.831519 11.666 1.13843V1.69409H12.7771V1.13843C12.7771 0.831519 13.0258 0.582766 13.3325 0.582766C13.6394 0.582766 13.8881 0.831519 13.8881 1.13843V1.69409H14.9992V1.13843C14.9992 0.831519 15.248 0.582766 15.5549 0.582766C15.8616 0.582766 16.1103 0.831519 16.1103 1.13843V1.69409H17.2214V1.13843C17.2214 0.831519 17.4701 0.582766 17.7771 0.582766C18.0837 0.582766 18.3325 0.831519 18.3325 1.13843V1.69409H18.6104C19.0704 1.69337 19.4431 1.32072 19.4438 0.860715Z" fill="#199F84"/>
<path d="M2.22308 2.80469V3.31026C2.22569 4.15337 1.90715 4.96585 1.33203 5.58251H18.6695C18.0946 4.96585 17.7761 4.15337 17.7787 3.31026V2.80469H2.22308Z" fill="#199F84"/>
<path d="M18.4958 6.69336H1.50394C0.56233 7.30266 -0.00424852 8.34942 2.39933e-05 9.47118V17.8044C0.000973433 18.7244 0.746521 19.4702 1.66653 19.4712H18.3332C19.2535 19.4702 19.999 18.7244 20 17.8044V9.47118C20.0042 8.34942 19.4374 7.30266 18.4958 6.69336Z" fill="#199F84"/>
</svg>
