<svg width="21" height="22" viewBox="0 0 21 22" fill="none" xmlns="http://www.w3.org/2000/svg">
<path d="M16.1251 1.45238C16.1245 1.07869 15.8155 0.775776 15.434 0.775391H1.15203C0.770363 0.775391 0.460938 1.0785 0.460938 1.45238C0.460938 1.82625 0.770363 2.12936 1.15203 2.12936H1.38233V1.67798C1.38233 1.42866 1.58861 1.22659 1.84312 1.22659C2.09743 1.22659 2.30371 1.42866 2.30371 1.67798V2.12936H3.2253V1.67798C3.2253 1.42866 3.43139 1.22659 3.68589 1.22659C3.9404 1.22659 4.14669 1.42866 4.14669 1.67798V2.12936H5.06807V1.67798C5.06807 1.42866 5.27436 1.22659 5.52867 1.22659C5.78318 1.22659 5.98946 1.42866 5.98946 1.67798V2.12936H6.91085V1.67798C6.91085 1.42866 7.11714 1.22659 7.37164 1.22659C7.62596 1.22659 7.83224 1.42866 7.83224 1.67798V2.12936H8.75363V1.67798C8.75363 1.42866 8.95991 1.22659 9.21442 1.22659C9.46893 1.22659 9.67521 1.42866 9.67521 1.67798V2.12936H10.5966V1.67798C10.5966 1.42866 10.8029 1.22659 11.0572 1.22659C11.3117 1.22659 11.518 1.42866 11.518 1.67798V2.12936H12.4394V1.67798C12.4394 1.42866 12.6457 1.22659 12.9002 1.22659C13.1545 1.22659 13.3608 1.42866 13.3608 1.67798V2.12936H14.2822V1.67798C14.2822 1.42866 14.4884 1.22659 14.7429 1.22659C14.9973 1.22659 15.2035 1.42866 15.2035 1.67798V2.12936H15.434C15.8155 2.12879 16.1245 1.82606 16.1251 1.45238Z" fill="white"/>
<path d="M1.84439 3.03125V3.44195C1.84656 4.12685 1.5824 4.78687 1.10547 5.28781H15.4829C15.0062 4.78687 14.7421 4.12685 14.7442 3.44195V3.03125H1.84439Z" fill="white"/>
<path fill-rule="evenodd" clip-rule="evenodd" d="M1.24717 6.19141H15.338C16.1189 6.68637 16.5889 7.5367 16.5854 8.44797V11.2318C16.107 11.1083 15.6063 11.0426 15.0914 11.0426C11.9486 11.0426 9.33728 13.4918 9.07628 16.5714H1.382C0.619068 16.5707 0.00080724 15.9648 1.9897e-05 15.2175V8.44797C-0.00352317 7.5367 0.466324 6.68637 1.24717 6.19141Z" fill="white"/>
<path fill-rule="evenodd" clip-rule="evenodd" d="M10.0625 16.5342C10.0625 13.8424 12.2902 11.6602 15.0381 11.6602C17.7861 11.6602 20.0138 13.8424 20.0138 16.5342C20.0138 19.2261 17.7861 21.4083 15.0381 21.4083C12.2902 21.4083 10.0625 19.2261 10.0625 16.5342ZM14.7541 18.6208L17.6191 15.1125L17.1011 14.7065L14.6588 17.6971L12.9285 16.2846L12.5038 16.7838L14.7541 18.6208Z" fill="white"/>
</svg>
