<svg width="258" height="24" viewBox="0 0 258 24" fill="none" xmlns="http://www.w3.org/2000/svg">
<rect width="36" height="24" rx="4" fill="#2A2A6C"/>
<path fill-rule="evenodd" clip-rule="evenodd" d="M22.7647 13.2538C22.7693 12.1103 21.8261 11.6163 21.0942 11.233C20.6309 10.9904 20.2522 10.7921 20.2522 10.5013C20.2522 10.2538 20.4922 9.99133 21.0022 9.92383C21.6092 9.86378 22.221 9.97007 22.7722 10.2313L23.0872 8.73133C22.5499 8.52985 21.981 8.42572 21.4072 8.42383C19.6372 8.42383 18.4072 9.36883 18.4072 10.7188C18.4072 11.7163 19.2997 12.2713 19.9747 12.6013C20.6497 12.9313 20.9122 13.1638 20.9047 13.4638C20.9047 13.9288 20.3497 14.1388 19.8322 14.1463C19.1938 14.1545 18.5639 13.9997 18.0022 13.6963L17.6797 15.1963C18.3153 15.4445 18.9924 15.5692 19.6747 15.5638C21.5572 15.5638 22.7947 14.6338 22.8022 13.1938L22.7647 13.2538ZM17.8938 8.54297L16.3938 15.4805H14.5938L16.0938 8.54297H17.8938ZM25.4414 13.0434L26.3864 10.4409L26.9339 13.0434H25.4414ZM29.1084 15.5034H27.4434L27.2259 14.4684H24.9684L24.6009 15.5034H22.7109L25.4034 9.07592C25.5276 8.77011 25.8234 8.56894 26.1534 8.56592H27.6534L29.1084 15.5034ZM12.4586 15.4593L15.3686 8.52182H13.4186L11.5511 13.2393L10.8011 9.22682C10.7347 8.81908 10.3817 8.52014 9.96859 8.52182H6.91609L6.87109 8.72432C7.48335 8.84411 8.07804 9.04066 8.64109 9.30932C8.88091 9.42207 9.04343 9.65302 9.06859 9.91682L10.5011 15.4593H12.4586Z" fill="white"/>
<rect x="46.5" y="0.5" width="35" height="23" rx="3.5" fill="white" stroke="#D9D9D9"/>
<g opacity="0.01">
<rect x="49.4922" y="2.40234" width="29.0325" height="19.2" fill="white"/>
</g>
<rect x="60.1797" y="5.74609" width="7.6575" height="12.51" fill="#F26122"/>
<path d="M61.0015 12.0006C60.9889 9.56574 62.0948 7.25988 64.0015 5.74559C60.7392 3.18006 56.053 3.55261 53.237 6.60135C50.421 9.65009 50.421 14.3511 53.237 17.3998C56.053 20.4486 60.7392 20.8211 64.0015 18.2556C62.0948 16.7413 60.9889 14.4354 61.0015 12.0006Z" fill="#EA1D25"/>
<path fill-rule="evenodd" clip-rule="evenodd" d="M76.1109 16.6736V16.9286H76.0659V16.6736H75.9609V16.6211H76.2234V16.6736H76.1109ZM76.6203 16.6211V16.9286H76.5678V16.6961L76.4853 16.8986H76.4253L76.3353 16.6961V16.9286H76.2828V16.6211H76.3578L76.4553 16.8386L76.5453 16.6211H76.6203Z" fill="#F69E1E"/>
<path d="M76.8739 12.0013C76.8719 15.0458 75.133 17.8223 72.3948 19.1531C69.6566 20.484 66.399 20.1358 64.0039 18.2563C67.4539 15.5397 68.0514 10.542 65.3389 7.08877C64.9501 6.58872 64.5018 6.1379 64.0039 5.74627C66.399 3.86677 69.6566 3.51858 72.3948 4.8494C75.133 6.18022 76.8719 8.95676 76.8739 12.0013Z" fill="#F69E1E"/>
<rect x="223.5" y="0.5" width="34" height="23" rx="3.5" fill="white" stroke="#D9D9D9"/>
<path fill-rule="evenodd" clip-rule="evenodd" d="M233 11.5673C233 15.4393 236.158 18.5971 240.067 18.5971C240.547 18.5971 241.027 18.5551 241.578 18.5068C242.193 18.453 242.897 18.3914 243.789 18.3715C245.142 18.3715 246.608 18.8602 248.225 20.2887C248.375 20.4391 248.601 20.2512 248.45 20.0632C246.834 18.0708 245.368 17.6949 243.902 17.3565C242.097 16.943 241.158 15.9656 240.518 14.8379C240.406 14.6123 240.33 14.6499 240.33 14.9506C240.293 15.4018 240.33 15.8153 240.406 16.2288H240.18C237.624 16.2288 235.519 14.1236 235.519 11.5673C235.519 9.01107 237.624 6.9059 240.18 6.9059C242.736 6.9059 244.842 9.01107 244.842 11.5673C244.842 11.7177 244.842 11.9057 244.804 12.0936C244.428 12.0184 243.789 12.0184 243.3 12.056C243.112 12.056 243.112 12.1312 243.263 12.1688C244.766 12.4696 245.819 13.4094 246.082 15.1386C246.082 15.2138 246.12 15.2138 246.157 15.1762C246.759 14.1236 247.135 12.8831 247.135 11.5673C247.135 7.65775 243.977 4.5 240.067 4.5C236.158 4.5 233 7.69534 233 11.5673ZM245.18 14.4619C245.443 14.5747 245.556 14.9506 245.556 15.1386C245.593 15.4393 245.518 15.5897 245.405 15.5897C245.293 15.5897 245.142 15.4769 244.992 15.2137C244.842 14.9506 244.766 14.6874 244.842 14.5371C244.954 14.4619 245.067 14.4243 245.18 14.4619ZM243.639 15.6273C243.789 15.6273 243.977 15.7025 244.165 15.8529C244.466 16.116 244.578 16.4168 244.428 16.6423C244.353 16.7551 244.165 16.8303 244.014 16.8303C243.827 16.8303 243.639 16.7551 243.526 16.6423C243.225 16.3792 243.15 16.0032 243.338 15.7777C243.375 15.7025 243.488 15.6273 243.639 15.6273Z" fill="#F28A1A"/>
<rect x="179.5" y="0.5" width="34" height="23" rx="3.5" fill="white" stroke="#D9D9D9"/>
<path d="M203.499 10.7791C203.427 10.3461 203.03 10.0574 202.489 10.0574C202.308 10.0574 202.164 10.0574 201.984 10.0574C201.659 10.0213 201.587 10.1296 201.587 10.3822C201.587 11.6451 201.587 12.872 201.587 14.135C201.587 14.7845 200.937 15.4701 200.179 15.6145C197.798 16.1557 195.416 16.6609 193.035 17.2022C192.782 17.2744 192.493 17.2744 192.205 17.2744C192.096 17.2744 191.916 17.2022 191.88 17.0939C191.844 17.0218 191.952 16.8774 192.024 16.8053C192.133 16.7331 192.277 16.6609 192.421 16.5888C192.854 16.4444 193.323 16.3001 193.756 16.1557C195.524 15.5784 197.293 15.001 199.061 14.3876C199.855 14.135 200.288 13.5937 200.288 12.9081C200.324 10.743 200.288 8.54186 200.288 6.37678C200.288 6.01593 200.107 5.72725 199.71 5.58291C199.241 5.40249 198.808 5.54683 198.411 5.72725C195.885 6.91805 193.395 8.10885 190.87 9.29964C190.148 9.66049 189.715 10.1657 189.715 10.8874C189.715 12.9442 189.715 15.001 189.715 17.0579C189.715 17.1661 189.715 17.2744 189.751 17.3465C190.004 18.0321 190.653 18.4652 191.519 18.4652C193.287 18.4652 195.055 18.4652 196.824 18.4652C198.592 18.4652 200.324 18.4652 202.092 18.4652C202.489 18.4652 202.814 18.393 203.102 18.1404C203.463 17.8517 203.463 17.4548 203.463 17.0939C203.463 15.3187 203.499 10.7791 203.499 10.7791ZM196.138 10.1296C196.318 9.66049 196.715 9.37181 197.293 9.29964C197.69 9.26356 198.014 9.48006 198.086 9.84091C198.159 10.3822 197.509 11.0317 196.824 11.0317C196.282 11.0317 195.957 10.6348 196.138 10.1296Z" fill="#FD6727"/>
<rect x="135.5" y="0.5" width="34" height="23" rx="3.5" fill="white" stroke="#D9D9D9"/>
<path fill-rule="evenodd" clip-rule="evenodd" d="M143.346 8.93296C143.816 8.97261 144.286 8.69506 144.58 8.34316C144.869 7.98135 145.06 7.49563 145.011 7C144.595 7.01983 144.081 7.27755 143.787 7.63936C143.518 7.95161 143.287 8.45715 143.346 8.93296ZM148.938 15.3167V7.58981H151.802C153.281 7.58981 154.314 8.62072 154.314 10.1274C154.314 11.6342 153.261 12.675 151.763 12.675H150.123V15.3167H148.938ZM145.006 9.02714C144.592 9.00301 144.214 9.1532 143.909 9.27451C143.712 9.35257 143.546 9.41868 143.42 9.41868C143.278 9.41868 143.104 9.34904 142.91 9.27085C142.655 9.16839 142.364 9.05125 142.058 9.05687C141.358 9.06679 140.707 9.46825 140.35 10.1076C139.615 11.3863 140.159 13.2796 140.869 14.3205C141.216 14.8359 141.632 15.4009 142.181 15.3811C142.422 15.3719 142.596 15.2974 142.775 15.2202C142.982 15.1314 143.197 15.0391 143.532 15.0391C143.856 15.0391 144.061 15.129 144.259 15.2152C144.446 15.2973 144.626 15.376 144.893 15.3712C145.461 15.3613 145.819 14.8557 146.166 14.3403C146.542 13.7871 146.706 13.2471 146.731 13.1652L146.734 13.1557C146.734 13.1551 146.729 13.153 146.721 13.1492C146.596 13.0911 145.637 12.6469 145.628 11.4557C145.619 10.4559 146.388 9.94937 146.509 9.86963L146.509 9.86962C146.517 9.86477 146.522 9.8615 146.524 9.85979C146.034 9.12626 145.27 9.04696 145.006 9.02714ZM156.478 15.3761C157.222 15.3761 157.913 14.9945 158.226 14.3898H158.25V15.3166H159.347V11.4706C159.347 10.3554 158.466 9.63672 157.11 9.63672C155.851 9.63672 154.921 10.3653 154.887 11.3665H155.954C156.042 10.8907 156.478 10.5784 157.075 10.5784C157.8 10.5784 158.206 10.9204 158.206 11.5499V11.9761L156.728 12.0653C155.352 12.1496 154.608 12.7195 154.608 13.7108C154.608 14.712 155.376 15.3761 156.478 15.3761ZM156.796 14.4592C156.165 14.4592 155.763 14.1519 155.763 13.6811C155.763 13.1954 156.15 12.9129 156.889 12.8683L158.206 12.784V13.2202C158.206 13.9438 157.599 14.4592 156.796 14.4592ZM162.985 15.619C162.51 16.9721 161.967 17.4181 160.811 17.4181C160.723 17.4181 160.429 17.4082 160.361 17.3884V16.4616C160.434 16.4715 160.615 16.4814 160.708 16.4814C161.232 16.4814 161.526 16.2584 161.707 15.6785L161.815 15.3365L159.807 9.71108H161.046L162.442 14.2758H162.466L163.862 9.71108H165.066L162.985 15.619ZM150.123 8.60087H151.489C152.517 8.60087 153.104 9.15598 153.104 10.1324C153.104 11.1088 152.517 11.6688 151.484 11.6688H150.123V8.60087Z" fill="black"/>
<rect x="91.5" y="0.5" width="34" height="23" rx="3.5" fill="white" stroke="#D9D9D9"/>
<path fill-rule="evenodd" clip-rule="evenodd" d="M107.53 15.7565V12.7355H109.089C109.728 12.7355 110.267 12.5215 110.707 12.0992L110.812 11.9922C111.615 11.118 111.562 9.75622 110.707 8.94746C110.279 8.51929 109.693 8.28737 109.089 8.29926H106.586V15.7565H107.53ZM107.53 11.8198V9.21508H109.113C109.453 9.21508 109.775 9.34591 110.015 9.58378C110.525 10.0833 110.537 10.9159 110.045 11.4332C109.804 11.6889 109.464 11.8317 109.113 11.8198H107.53ZM115.214 11.0526C114.81 10.678 114.259 10.4877 113.561 10.4877C112.664 10.4877 111.99 10.8207 111.545 11.4808L112.377 12.0101C112.682 11.5581 113.098 11.3321 113.626 11.3321C113.96 11.3321 114.282 11.457 114.534 11.683C114.78 11.8971 114.921 12.2063 114.921 12.5334V12.7534C114.558 12.5512 114.1 12.4442 113.538 12.4442C112.881 12.4442 112.354 12.5988 111.961 12.914C111.568 13.2291 111.369 13.6454 111.369 14.1747C111.357 14.6564 111.562 15.1143 111.926 15.4235C112.295 15.7565 112.764 15.923 113.315 15.923C113.966 15.923 114.481 15.6316 114.874 15.0488H114.915V15.7565H115.818V12.6107C115.818 11.9506 115.619 11.4273 115.214 11.0526ZM112.653 14.8169C112.459 14.6742 112.342 14.4423 112.342 14.1925C112.342 13.913 112.471 13.6811 112.723 13.4967C112.981 13.3124 113.304 13.2172 113.685 13.2172C114.212 13.2113 114.623 13.3302 114.916 13.5681C114.916 13.9725 114.757 14.3233 114.447 14.6207C114.165 14.9061 113.784 15.0667 113.386 15.0667C113.122 15.0726 112.864 14.9834 112.653 14.8169ZM117.846 17.9985L121 10.6542H119.974L118.514 14.3174H118.497L117.002 10.6542H115.976L118.045 15.4295L116.873 17.9985H117.846Z" fill="#3C4043"/>
<path d="M104.273 12.0831C104.273 11.7917 104.25 11.5003 104.203 11.2148H100.223V12.8621H102.503C102.409 13.3914 102.104 13.8671 101.659 14.1644V15.2349H103.019C103.816 14.4915 104.273 13.3914 104.273 12.0831Z" fill="#4285F4"/>
<path d="M100.222 16.2696C101.359 16.2696 102.321 15.889 103.018 15.2349L101.658 14.1645C101.277 14.4261 100.791 14.5748 100.222 14.5748C99.1201 14.5748 98.1881 13.8195 97.854 12.8086H96.4531V13.9147C97.1682 15.3598 98.6278 16.2696 100.222 16.2696Z" fill="#34A853"/>
<path d="M97.854 12.8079C97.6781 12.2786 97.6781 11.7018 97.854 11.1666V10.0664H96.4529C95.849 11.2736 95.849 12.7008 96.4529 13.908L97.854 12.8079Z" fill="#FBBC04"/>
<path d="M100.222 9.40016C100.826 9.38827 101.406 9.62019 101.84 10.0424L103.047 8.81738C102.28 8.09188 101.271 7.69344 100.222 7.70534C98.6278 7.70534 97.1682 8.62114 96.4531 10.0662L97.854 11.1723C98.1881 10.1554 99.1201 9.40016 100.222 9.40016Z" fill="#EA4335"/>
</svg>
