<svg width="154" height="156" viewBox="0 0 154 156" fill="none" xmlns="http://www.w3.org/2000/svg">
<rect width="154" height="156" rx="24" fill="#199F84"/>
<path d="M55.3636 57H61.5455V63H55.3636V57ZM43 45H73.9091V75H43V45ZM49.1818 51V69H67.7273V51H49.1818ZM55.3636 93H61.5455V99H55.3636V93ZM43 81H73.9091V111H43V81ZM49.1818 87V105H67.7273V87H49.1818ZM80.0909 81H92.4545V87H98.6364V81H111V87H98.6364V93H111V111H98.6364V105H86.2727V111H80.0909V105H86.2727V99H80.0909V81ZM104.818 105V99H98.6364V105H104.818ZM98.6364 93H92.4545V87H86.2727V99H98.6364V93ZM92.4545 48V57H83.1818V63H92.4545V72H98.6364V63H107.909V57H98.6364V48H92.4545Z" fill="#F7F8FA"/>
<path fill-rule="evenodd" clip-rule="evenodd" d="M57.6667 20H27C22.5817 20 19 23.5817 19 28V58.6667H29.4468V37.2257C29.4468 32.8075 33.0285 29.2257 37.4468 29.2257H57.6667V20ZM27 136C22.5817 136 19 132.418 19 128V97.3333H29.4468V118.774C29.4468 123.193 33.0285 126.774 37.4468 126.774H57.6667V136H27ZM96.3333 20V29.2257H117.774C122.193 29.2257 125.774 32.8075 125.774 37.2257V58.6667H135V28C135 23.5817 131.418 20 127 20H96.3333ZM125.774 97.3333H135V128C135 132.418 131.418 136 127 136H96.3333V126.774H117.774C122.193 126.774 125.774 123.193 125.774 118.774V97.3333Z" fill="#F7F8FA"/>
</svg>
