<svg width="157" height="151" viewBox="0 0 157 151" fill="none" xmlns="http://www.w3.org/2000/svg">
<path fill-rule="evenodd" clip-rule="evenodd" d="M18 30.6332C18 24.3001 23.3009 19.166 29.8399 19.166H61.4129C67.9519 19.166 73.2527 24.3001 73.2527 30.6332V61.2124C73.2527 67.5455 67.9519 72.6796 61.4129 72.6796H29.8399C23.3009 72.6796 18 67.5455 18 61.2124V30.6332ZM29.8399 26.8108C27.6602 26.8108 25.8932 28.5222 25.8932 30.6332V61.2124C25.8932 63.3234 27.6602 65.0348 29.8399 65.0348H61.4129C63.5925 65.0348 65.3595 63.3234 65.3595 61.2124V30.6332C65.3595 28.5222 63.5925 26.8108 61.4129 26.8108H29.8399ZM81.146 30.6332C81.146 24.3001 86.4469 19.166 92.9859 19.166H124.559C131.098 19.166 136.399 24.3001 136.399 30.6332V61.2124C136.399 67.5455 131.098 72.6796 124.559 72.6796H92.9859C86.4469 72.6796 81.146 67.5455 81.146 61.2124V30.6332ZM92.9859 26.8108C90.8062 26.8108 89.0392 28.5222 89.0392 30.6332V61.2124C89.0392 63.3234 90.8062 65.0348 92.9859 65.0348H124.559C126.739 65.0348 128.505 63.3234 128.505 61.2124V30.6332C128.505 28.5222 126.739 26.8108 124.559 26.8108H92.9859ZM49.573 49.7452H41.6797V42.1004H49.573V49.7452ZM112.719 49.7452H104.826V42.1004H112.719V49.7452ZM18 91.7916C18 85.4584 23.3009 80.3244 29.8399 80.3244H61.4129C67.9519 80.3244 73.2527 85.4584 73.2527 91.7916V122.371C73.2527 128.704 67.9519 133.838 61.4129 133.838H29.8399C23.3009 133.838 18 128.704 18 122.371V91.7916ZM29.8399 87.9692C27.6602 87.9692 25.8932 89.6805 25.8932 91.7916V122.371C25.8932 124.482 27.6602 126.193 29.8399 126.193H61.4129C63.5925 126.193 65.3595 124.482 65.3595 122.371V91.7916C65.3595 89.6805 63.5925 87.9692 61.4129 87.9692H29.8399ZM81.146 80.3244H112.719V87.9692H89.0392V110.904H81.146V80.3244ZM136.399 87.9692H128.505V80.3244H136.399V87.9692ZM49.573 110.904H41.6797V103.259H49.573V110.904ZM128.505 110.904H104.826V103.259H136.399V133.838H128.505V110.904ZM81.146 126.193H112.719V133.838H81.146V126.193Z" fill="#EB4B4D"/>
<line y1="-4" x2="208.89" y2="-4" transform="matrix(-0.718322 0.695711 -0.718322 -0.695711 151 0)" stroke="#EB4B4D" stroke-width="8"/>
</svg>
