<svg width="79" height="78" viewBox="0 0 79 78" fill="none" xmlns="http://www.w3.org/2000/svg">
<g opacity="0.4">
<path d="M76.5567 3.97941C76.5539 2.18121 75.0757 0.723535 73.251 0.72168H4.93466C3.10901 0.72168 1.62891 2.18028 1.62891 3.97941C1.62891 5.77854 3.10901 7.23714 4.93466 7.23714H6.03626V5.06501C6.03626 3.86528 7.02299 2.89288 8.24041 2.89288C9.45688 2.89288 10.4436 3.86528 10.4436 5.06501V7.23714H14.8519V5.06501C14.8519 3.86528 15.8377 2.89288 17.0551 2.89288C18.2725 2.89288 19.2593 3.86528 19.2593 5.06501V7.23714H23.6666V5.06501C23.6666 3.86528 24.6533 2.89288 25.8698 2.89288C27.0872 2.89288 28.074 3.86528 28.074 5.06501V7.23714H32.4813V5.06501C32.4813 3.86528 33.4681 2.89288 34.6855 2.89288C35.9019 2.89288 36.8887 3.86528 36.8887 5.06501V7.23714H41.296V5.06501C41.296 3.86528 42.2828 2.89288 43.5002 2.89288C44.7176 2.89288 45.7043 3.86528 45.7043 5.06501V7.23714H50.1117V5.06501C50.1117 3.86528 51.0984 2.89288 52.3149 2.89288C53.5323 2.89288 54.519 3.86528 54.519 5.06501V7.23714H58.9264V5.06501C58.9264 3.86528 59.9131 2.89288 61.1305 2.89288C62.347 2.89288 63.3337 3.86528 63.3337 5.06501V7.23714H67.7411V5.06501C67.7411 3.86528 68.7278 2.89288 69.9452 2.89288C71.1617 2.89288 72.1484 3.86528 72.1484 5.06501V7.23714H73.251C75.0757 7.23436 76.5539 5.77761 76.5567 3.97941Z" fill="#2A2C38"/>
<path d="M8.40273 11.3093V13.3846C8.41303 16.8452 7.15611 20.1802 4.88672 22.7114H73.2991C71.0306 20.1802 69.7737 16.8452 69.784 13.3846V11.3093H8.40273Z" fill="#C4C4C4"/>
<path d="M73.0585 26.7834H5.94055C2.2212 29.1913 -0.0167816 33.3278 9.47737e-05 37.7608V70.6917C0.00384506 74.3274 2.94876 77.2745 6.58279 77.2783H72.4163C76.0512 77.2745 78.9961 74.3274 78.9999 70.6917V37.7608C79.0168 33.3278 76.7779 29.1913 73.0585 26.7834Z" fill="#C4C4C4"/>
<rect y="37" width="79" height="33" fill="#199F84"/>
</g>
</svg>
