<svg width="90" height="73" viewBox="0 0 90 73" fill="none" xmlns="http://www.w3.org/2000/svg">
<g opacity="0.4">
<path d="M90 65.1082V67.0811C90 70.4352 69.8478 73 45 73C20.1522 73 0 70.4352 0 67.0811V65.1082C0 68.4622 20.1522 71.0271 45 71.0271C69.8478 71.0271 90 68.4622 90 65.1082Z" fill="#C4C4C4"/>
<path d="M90 9.86475V61.162C90 64.5161 69.8478 67.081 45 67.081C20.1522 67.081 0 64.5161 0 61.162V9.86475C0 11.0485 2.15217 12.035 6.06522 12.8242C13.6957 14.5999 28.3696 15.7837 45 15.7837C61.6304 15.7837 76.3044 14.5999 83.9348 12.8242C87.8478 12.035 90 11.0485 90 9.86475Z" fill="#199F84"/>
<path d="M45 11.8378C69.8528 11.8378 90 9.18785 90 5.91892C90 2.64999 69.8528 0 45 0C20.1472 0 0 2.64999 0 5.91892C0 9.18785 20.1472 11.8378 45 11.8378Z" fill="#C4C4C4"/>
</g>
</svg>
