<svg width="17" height="21" viewBox="0 0 17 21" fill="none" xmlns="http://www.w3.org/2000/svg">
<path d="M2.125 0C2.125 0.53865 2.64562 1.05 3.1875 1.05H13.8125C14.3576 1.05 14.875 0.5355 14.875 0H17C17 0.835432 16.6642 1.63665 16.0664 2.22739C15.4686 2.81813 14.6579 3.15 13.8125 3.15H9.5625L9.56356 5.3151C11.6174 5.57153 13.506 6.55969 14.8751 8.09421C16.2442 9.62873 16.9998 11.6042 17 13.65V19.95C17 20.2285 16.8881 20.4956 16.6888 20.6925C16.4895 20.8894 16.2193 21 15.9375 21H1.0625C0.780707 21 0.510457 20.8894 0.311199 20.6925C0.111942 20.4956 0 20.2285 0 19.95V13.65C3.5141e-05 11.604 0.755636 9.62826 2.125 8.09366C3.49437 6.55907 5.38337 5.57108 7.4375 5.3151V3.15H3.1875C1.42375 3.15 0 1.743 0 0H2.125ZM8.5 9.45C6.15188 9.45 4.25 11.3295 4.25 13.65C4.25 15.9705 6.15188 17.85 8.5 17.85C9.24955 17.8504 9.98587 17.6549 10.6343 17.2833C11.2826 16.9116 11.82 16.3771 12.1918 15.7339C12.5636 15.0907 12.7566 14.3618 12.7513 13.6211C12.746 12.8804 12.5424 12.1543 12.1614 11.5164L9.25119 14.3934L9.15131 14.4795C8.93776 14.6427 8.66936 14.7194 8.40063 14.6941C8.1319 14.6688 7.88299 14.5434 7.70445 14.3433C7.52592 14.1432 7.43114 13.8834 7.43938 13.6168C7.44762 13.3502 7.55826 13.0966 7.74881 12.9076L10.659 10.0307C10.0047 9.65 9.25923 9.4495 8.5 9.45Z" fill="#199F84"/>
</svg>
