<svg width="172" height="172" viewBox="0 0 172 172" fill="none" xmlns="http://www.w3.org/2000/svg">
<path d="M163.984 54.0265C162.991 54.0305 162.011 53.8083 161.118 53.3767L85.8416 15.0364L10.5648 53.1167C8.95866 53.875 7.11642 53.9656 5.44337 53.3684C3.77031 52.7713 2.40349 51.5354 1.64359 49.9325C0.883695 48.3297 0.792961 46.4913 1.39135 44.8217C1.98974 43.1521 3.22824 41.7881 4.83439 41.0298L85.8416 1L166.849 41.0298C168.556 41.4279 170.038 42.4812 170.973 43.9616C171.908 45.442 172.221 47.2303 171.844 48.9394C171.467 50.6484 170.431 52.1406 168.96 53.0927C167.489 54.0448 165.701 54.3803 163.984 54.0265ZM53.2824 119.01H14.2114V158H53.2824V119.01ZM105.377 119.01H66.3061V158H105.377V119.01ZM157.472 119.01H118.401V158H157.472V119.01ZM131.424 67.0232H92.3534V106.013H131.424V67.0232ZM79.3298 67.0232H40.2588V106.013H79.3298V67.0232Z" fill="#199F84"/>
</svg>
